<svg version="1.2" xmlns="http://www.w3.org/2000/svg" viewBox="0 0 24 25" width="24" height="25"><style>.s0{fill:#ffffff}</style><path class="s0" d="m12.3 24.4c-6.6 0-11.9-5.3-11.9-11.9c0-6.6 5.3-12 11.9-12c6.5 0 11.8 5.4 11.8 12c0 6.6-5.3 11.9-11.8 11.9zm0-22.4c-5.7 0-10.4 4.7-10.4 10.5c0 5.7 4.7 10.4 10.4 10.4c5.7 0 10.3-4.7 10.3-10.4c0-5.8-4.6-10.5-10.3-10.5zm4.7 21.3c-0.4 0-0.7-0.3-0.7-0.6c0-0.1-0.5-5.5-3.6-11.6c-3.2-6.1-5.3-8.4-5.3-8.4c-0.3-0.3-0.3-0.8 0-1.1c0.3-0.3 0.8-0.2 1.1 0c0.1 0.1 2.2 2.5 5.5 8.8c3.3 6.4 3.7 11.9 3.7 12.1c0.1 0.4-0.2 0.8-0.6 0.8q-0.1 0-0.1 0zm-13-11.2c-1.6 0-2.5-0.2-2.6-0.2c-0.4 0-0.7-0.4-0.6-0.8c0-0.4 0.4-0.7 0.8-0.6c0.1 0 4.8 0.7 10.9-1.3c5.7-2 6.5-5.1 6.5-5.1c0-0.4 0.4-0.7 0.8-0.6c0.4 0.1 0.7 0.5 0.6 0.9c0 0.1-0.8 4-7.5 6.2c-3.6 1.2-6.8 1.5-8.9 1.5zm1.1 9.2q-0.1 0-0.3 0c-0.3-0.2-0.5-0.6-0.3-1c0-0.2 1.7-4 7.2-6.5c6-2.8 11.2-1 11.4-0.9c0.4 0.1 0.6 0.6 0.4 0.9c-0.1 0.4-0.5 0.6-0.9 0.5c0 0-4.9-1.7-10.3 0.8c-4.9 2.3-6.5 5.7-6.5 5.8c-0.1 0.3-0.4 0.4-0.7 0.4z" /></svg>