<svg version="1.2" xmlns="http://www.w3.org/2000/svg" viewBox="0 0 13 24" width="13" height="24"><style>.s0{fill:#ffffff}</style><path class="s0" d="m8.1 2q0.2 0 0.2 0h1.9v2.3h-1.9c-1.1 0-1.1 0.9-1.1 0.9v3.6h3.8l-0.5 2.3h-3.3v11.3h-2.2l-0.1-11.3h-2.9v-2.3h3c0 0 0-2.8 0-3.5c0-3.1 2.5-3.3 3.1-3.3m2.1 0m-2.1-1.5c-0.5 0-1.6 0.1-2.6 0.7c-0.9 0.6-2.1 1.8-2.1 4.1v2h-1.4c-0.4 0-0.8 0.2-1.1 0.4c-0.3 0.3-0.4 0.7-0.4 1.1v2.3c0 0.8 0.6 1.5 1.5 1.5h1.4v9.8c0 0.8 0.7 1.5 1.6 1.5h2.2c0.8 0 1.5-0.7 1.5-1.5v-9.8h1.8c0.6 0 1.2-0.5 1.4-1.1l0.5-2.3c0.2-0.4 0.1-0.9-0.2-1.3c-0.3-0.4-0.7-0.6-1.2-0.6h-2.3v-1.5h1.5c0.8 0 1.5-0.7 1.5-1.5v-2.2q0 0 0-0.1c0-0.8-0.6-1.5-1.5-1.5h-1.9q-0.1 0-0.2 0z" /></svg>