<svg version="1.2" xmlns="http://www.w3.org/2000/svg" viewBox="0 0 23 19" width="23" height="19"><style>.s0{fill:#ffffff}</style><path class="s0" d="m15.5 1.7c1.2 0 2.3 0.5 3 1.3q1.4-0.3 2.6-1c-0.3 0.9-1 1.7-1.8 2.2q1.2-0.2 2.3-0.6q-0.8 1.2-2 2q0 0.2 0 0.5c0 5.2-4.1 11.1-11.5 11.1c-2.3 0-4.4-0.6-6.2-1.7q0.5 0 1 0c1.9 0 3.6-0.6 5-1.6c-1.8-0.1-3.3-1.2-3.8-2.8q0.4 0.1 0.8 0.1q0.5 0 1-0.1c-1.8-0.4-3.2-2-3.2-3.9q0 0 0 0q0.8 0.4 1.8 0.5c-1.1-0.7-1.8-1.9-1.8-3.3c0-0.7 0.2-1.4 0.6-2c2 2.4 4.9 4 8.3 4.1q-0.1-0.4-0.1-0.9c0-2.1 1.8-3.9 4-3.9m6.1 1.9m-6.1-3.3c-2.7 0-5 2-5.4 4.6c-2.2-0.4-4.3-1.6-5.8-3.4c-0.2-0.3-0.6-0.5-1-0.5q-0.1 0-0.1 0c-0.5 0.1-0.9 0.3-1.1 0.7c-0.5 0.8-0.8 1.8-0.8 2.7q0 1 0.3 1.8c-0.2 0.3-0.3 0.6-0.3 1c0 1.4 0.5 2.7 1.4 3.6q0 0.4 0.1 0.8c0.3 0.9 0.9 1.7 1.6 2.4q-0.8 0.1-1.5 0.1q-0.4 0-0.8 0q-0.1 0-0.2 0c-0.6 0-1.1 0.3-1.3 0.9c-0.2 0.6 0 1.3 0.6 1.7c2 1.3 4.4 1.9 6.9 1.9c8 0 12.8-6.2 12.9-12.3q1-0.8 1.7-1.9q0.3-0.4 0.3-0.8c0-0.5-0.2-0.9-0.6-1.2c0.2-0.5 0-1.1-0.5-1.5q-0.4-0.3-0.8-0.3q-0.4 0-0.7 0.2q-0.7 0.4-1.5 0.6c-1-0.7-2.1-1.1-3.4-1.1z" /></svg>